<svg xmlns="http://www.w3.org/2000/svg" viewBox="0 0 512 512" role="img" aria-label="汐光自律图标">
  <defs>
    <linearGradient id="bg" x1="88" y1="64" x2="424" y2="448" gradientUnits="userSpaceOnUse">
      <stop stop-color="#6FB1F0"/>
      <stop offset="0.56" stop-color="#BBDDF7"/>
      <stop offset="1" stop-color="#F4C9D5"/>
    </linearGradient>
    <linearGradient id="shine" x1="176" y1="148" x2="340" y2="368" gradientUnits="userSpaceOnUse">
      <stop stop-color="#FFFFFF"/>
      <stop offset="1" stop-color="#EAF3FE"/>
    </linearGradient>
  </defs>
  <rect width="512" height="512" rx="118" fill="url(#bg)"/>
  <circle cx="382" cy="136" r="56" fill="#FFFFFF" opacity="0.38"/>
  <circle cx="116" cy="404" r="74" fill="#FFFFFF" opacity="0.22"/>
  <path d="M159 313c42 37 94 52 151 28 46-19 75-60 83-106 4-22 34-19 34 4 0 95-77 172-172 172-75 0-139-48-163-115-8-22 48 0 67 17Z" fill="#FFFFFF" opacity="0.52"/>
  <path d="M164 185c30-45 83-74 142-68 24 3 24 39 0 41-38 2-73 22-94 54-12 18-62-6-48-27Z" fill="#FFFFFF" opacity="0.7"/>
  <text x="256" y="307" text-anchor="middle" font-family="PingFang SC, Microsoft YaHei, sans-serif" font-size="150" font-weight="800" fill="url(#shine)">汐</text>
</svg>
